<svg viewBox="0 0 390 121.168" ><g transform="matrix(1.12409 0 0 1.12409 13.795 14.38)" fill="#fff"><circle xmlns="http://www.w3.org/2000/svg" cx="42.125" cy="19.337" r="9.916"/><circle xmlns="http://www.w3.org/2000/svg" cx="27.438" cy="63.042" r="4.958"/><circle xmlns="http://www.w3.org/2000/svg" cx="62.284" cy="87.752" r="4.958"/><circle xmlns="http://www.w3.org/2000/svg" cx="46.204" cy="33.938" r="4.462"/><circle xmlns="http://www.w3.org/2000/svg" cx="64.86" cy="59.99" r="5.356"/><path xmlns="http://www.w3.org/2000/svg" d="M74.019 19.736c2.416 0 4.487-1.398 5.505-3.418a45.144 45.144 0 00-10.13-6.832c-.959 1.089-1.561 2.503-1.561 4.068a6.183 6.183 0 006.186 6.182z"/><circle xmlns="http://www.w3.org/2000/svg" cx="62.615" cy="30.244" r="11.237"/><path xmlns="http://www.w3.org/2000/svg" d="M93.643 59.136a44.027 44.027 0 01-.996 3.893c.553-1.2.899-2.51.996-3.893z"/><path xmlns="http://www.w3.org/2000/svg" d="M82.447 47.098c-6.207 0-11.237 5.031-11.237 11.239 0 6.205 5.03 11.238 11.237 11.238 4.528 0 8.422-2.687 10.199-6.547a43.85 43.85 0 00.996-3.893c.019-.265.041-.528.041-.799.001-6.207-5.031-11.238-11.236-11.238zM17.748 33.007c0-3.719-2.476-6.828-5.855-7.863A44.816 44.816 0 005.52 40.213c1.181.652 2.52 1.057 3.965 1.057a8.264 8.264 0 008.263-8.263z"/><circle xmlns="http://www.w3.org/2000/svg" cx="71.619" cy="76.304" r="8.263"/><path xmlns="http://www.w3.org/2000/svg" d="M58.373 17.711a7.6 7.6 0 007.6-7.602c0-.8-.157-1.554-.386-2.278A44.807 44.807 0 0052.776 5c-1.233 1.353-2.005 3.135-2.005 5.109a7.6 7.6 0 007.602 7.602zM13.703 69.904a7.603 7.603 0 000-15.204c-4.12 0-7.454 3.283-7.58 7.371a44.376 44.376 0 001.726 5.027c1.394 1.701 3.484 2.806 5.854 2.806z"/><circle xmlns="http://www.w3.org/2000/svg" cx="23.286" cy="52.574" r="4.481"/><path xmlns="http://www.w3.org/2000/svg" d="M39.335 88.411a4.48 4.48 0 00-8.962 0c0 1.048.375 2 .979 2.763a44.823 44.823 0 004.292 1.638 4.475 4.475 0 003.691-4.401z"/><circle xmlns="http://www.w3.org/2000/svg" cx="13.015" cy="47.207" r="5.802"/><circle xmlns="http://www.w3.org/2000/svg" cx="26.313" cy="30.271" r="7.603"/><path xmlns="http://www.w3.org/2000/svg" d="M62.137 71.661c-.032-8.119-6.643-14.678-14.762-14.646-8.122.032-14.68 6.64-14.646 14.76.03 8.123 6.64 14.679 14.76 14.647 8.121-.031 14.68-6.639 14.648-14.761zM81.061 17.76c-3.272 3.114-5.316 7.506-5.298 12.381.038 9.399 7.686 16.989 17.085 16.952.55-.001 1.096-.036 1.633-.088-.737-11.435-5.73-21.706-13.42-29.245zM70.2 42.307a4.462 4.462 0 10.035 8.923 4.462 4.462 0 00-.035-8.923z"/><circle xmlns="http://www.w3.org/2000/svg" cx="23.67" cy="42.116" r="2.643"/><circle xmlns="http://www.w3.org/2000/svg" cx="37.26" cy="46.034" r="9.454"/><path xmlns="http://www.w3.org/2000/svg" d="M30.479 11.066a9.44 9.44 0 00-.196-1.886 45.176 45.176 0 00-13.856 10.178 9.402 9.402 0 004.635 1.199c5.222-.021 9.438-4.272 9.417-9.491zM31.842 78.716c-.022-5.22-4.271-9.435-9.491-9.416-4.465.019-8.185 3.132-9.16 7.292a45.281 45.281 0 0011.917 11.214c3.907-1.174 6.749-4.801 6.734-9.09z"/><circle xmlns="http://www.w3.org/2000/svg" cx="55.339" cy="48.772" r="7.603"/><path xmlns="http://www.w3.org/2000/svg" d="M48.537 87.771c-3.811.016-6.958 2.778-7.604 6.402 2.782.536 5.652.827 8.589.827 2.28 0 4.52-.173 6.71-.5-.515-3.806-3.75-6.743-7.695-6.729z"/></g><path d="M140 87.403V45.324h18.708q4.49 0 7.944 1.842t5.354 5.18 1.9 7.6q0 4.547-2.303 8.116t-6.275 5.238q4.087 5.18 10.88 14.103h-10.88q-3.684-4.605-10.074-13.124h-6.216v13.124H140zm18.708-21.01q2.36 0 4.26-1.699t1.9-4.749q0-2.475-1.324-4.605t-4.836-2.13h-9.67v13.182h9.67zM199.751 44l23.083 43.403h-9.958l-3.339-6.447h-19.63l-3.223 6.447h-10.016zm5.411 29.185l-5.41-10.995-5.354 10.995h10.764zm62.112-5.814q0 .69-.115 2.418-.46 5.296-3.54 9.498t-7.944 6.562-10.506 2.36q-6.16 0-11.369-2.936t-8.26-7.944-3.05-10.937q0-5.871 3.05-10.908t8.26-7.973 11.37-2.935q5.813 0 10.85 2.734t8.203 7.397l-7.829 4.547q-2.072-2.82-5.008-4.605t-6.217-1.784q-3.684 0-6.821 1.87t-4.98 4.98-1.841 6.677 1.842 6.707 4.979 5.008 6.821 1.87q2.648 0 5.239-1.064t4.49-2.907 2.532-4.03h-15.715v-8.001h25.444q.115 2.302.115 3.396zm30.624 16.866q-1.094 1.497-3.77 2.677t-5.843 1.18q-4.893 0-8.491-2.187t-5.497-5.958-1.9-8.376 1.9-8.375 5.497-5.958 8.49-2.188q3.282 0 5.786 1.123t3.828 2.85v-3.282h8.52v31.66h-8.52v-3.166zm-2.015-19.14q-2.36-2.504-6.332-2.504-4.03 0-6.36 2.504t-2.332 6.476q0 3.857 2.389 6.39t6.303 2.533q4.03 0 6.36-2.39t2.332-6.533q0-3.972-2.36-6.476zm27.573-6.188q1.094-1.497 3.77-2.677t5.843-1.18q4.893 0 8.491 2.188t5.497 5.958 1.9 8.375-1.9 8.376-5.497 5.958-8.49 2.187q-3.282 0-5.786-1.123t-3.828-2.849v13.47h-8.52V55.743h8.52v3.166zm2.015 19.14q2.36 2.504 6.332 2.504 4.03 0 6.36-2.504t2.332-6.476q0-3.857-2.389-6.39t-6.303-2.532q-4.03 0-6.36 2.389t-2.332 6.533q0 3.972 2.36 6.476zm39.028-19.14q1.094-1.497 3.77-2.677t5.843-1.18q4.893 0 8.491 2.188t5.497 5.958 1.9 8.375-1.9 8.376-5.497 5.958-8.49 2.187q-3.282 0-5.786-1.123t-3.828-2.849v13.47h-8.52V55.743h8.52v3.166zm2.015 19.14q2.36 2.504 6.332 2.504 4.03 0 6.36-2.504t2.332-6.476q0-3.857-2.389-6.39t-6.303-2.532q-4.03 0-6.36 2.389t-2.332 6.533q0 3.972 2.36 6.476z" fill="#fff"/></svg>