<svg class="logo" viewBox="0 0 53 40" fill="none" xmlns="http://www.w3.org/2000/svg">
  <path d="M29.282 12.975v2.013c0 .28-.232.515-.557.515h-.79a.487.487 0 0 1-.418-.234c-.047-.094-.14-.14-.279-.14h-2.416c-.093 0-.232.046-.279.14a.487.487 0 0 1-.418.234h-.79c-.325 0-.557-.234-.557-.515v-2.013c0-.28.232-.562.557-.562h.79c.186 0 .325.094.418.234.047.094.186.14.28.14h2.415c.093 0 .232-.046.279-.14a.553.553 0 0 1 .418-.234h.79c.325 0 .557.234.557.562zM27.1 22.337c0 4.026-.326 7.959-.883 11.704-.047.187-.325.187-.325 0-.604-3.745-.883-7.63-.883-11.703 0-1.452.046-2.856.14-4.26 0-.422.046-.843.092-1.264 0-.234.279-.422.558-.422h.65c.279 0 .558.188.558.422.046.421.046.842.093 1.264-.047 1.404 0 2.855 0 4.26zM48.563.477c-2.23-1.03-4.692-.375-6.876 1.825-2.927 2.855-6.225 7.537-9.199 12.124-.186.281-.465.75-.79 1.264-.186.328-.418.656-.65 1.03-.093.094-.14.234-.186.328-.79 1.264-1.719 2.668-2.416 3.745v5.383c.14.234.279.422.465.655.046.047.093.141.139.188.046.047.093.14.14.187a.82.82 0 0 0 .185.234c.047.047.093.14.14.187 2.183 3.184 4.413 6.086 6.69 8.24 1.905 1.825 4.32 2.527 6.412 1.825 2.044-.655 3.53-2.481 4.042-4.962l5.435-26.028c.14-1.591-.185-4.962-3.53-6.226zm.558 5.663-5.39 25.981c-.278 1.405-1.022 2.435-2.044 2.715-1.068.375-2.37-.046-3.484-1.123-2.323-2.2-4.646-5.337-6.923-8.754l-.14-.187c-.185-.281-.37-.515-.557-.796l-.093-.094-.278-.42s.278-.422.418-.656c.093-.14.186-.281.279-.469.603-.936 1.393-2.153 2.137-3.323.093-.14.139-.234.232-.375v-.046c.186-.328.418-.656.604-.937.558-.842 1.022-1.544 1.254-1.966 2.834-4.353 5.669-8.473 8.596-11.328.929-.89 2.323-1.826 3.716-1.218 1.905.796 1.673 2.669 1.673 2.996zM21.198 17c-.046-.093-.14-.233-.186-.327-.278-.421-.51-.796-.743-1.17-.279-.468-.557-.843-.697-1.077-2.973-4.587-6.226-9.269-9.2-12.124C8.143.102 5.68-.554 3.498.476.152 1.74-.173 5.111.059 6.75l5.436 26.028c.51 2.48 1.997 4.306 4.042 4.962 2.137.702 4.506-.047 6.411-1.826 2.277-2.153 4.507-5.056 6.69-8.239.047-.047.093-.093.093-.187a.822.822 0 0 1 .186-.234c.047-.047.093-.14.14-.187.046-.047.093-.14.139-.188.14-.234.279-.42.418-.655v-5.43c-.697-1.124-1.626-2.528-2.416-3.792zm.65 6.461c-.092.187-1.021 1.498-1.021 1.498-2.324 3.417-4.647 6.554-6.923 8.754-1.115 1.077-2.416 1.498-3.485 1.123-1.022-.28-1.765-1.31-2.044-2.715l-5.39-25.98c-.046-.328-.232-2.248 1.627-2.95 1.394-.608 2.787.328 3.717 1.217 2.88 2.856 5.76 6.975 8.595 11.329.093.14.51.843 1.068 1.732 1.44 2.247 3.857 5.992 3.857 5.992z" fill="url(#a)"/>
  <path opacity=".43" d="M33.882 17.656c-.186.281-.372.609-.604.937v.046c-.093.14-.14.234-.232.375-.744 1.17-1.534 2.387-2.138 3.323a4.124 4.124 0 0 1-.278.469c-.14.234-.418.655-.418.655l-1.766-2.715c.697-1.077 1.58-2.481 2.416-3.745.046-.094.14-.187.186-.328.232-.374.464-.702.65-1.03l2.184 2.013z" fill="url(#b)"/>
  <defs>
    <linearGradient id="a" x1="-.024" y1="18.985" x2="52.062" y2="18.985" gradientUnits="userSpaceOnUse">
      <stop offset="0" stop-color="#00DACE"/>
      <stop offset=".096" stop-color="#01D5D0"/>
      <stop offset=".212" stop-color="#06C6D7"/>
      <stop offset=".339" stop-color="#0DAEE2"/>
      <stop offset=".472" stop-color="#168CF1"/>
      <stop offset=".528" stop-color="#1B7BF9"/>
      <stop offset=".549" stop-color="#2577FA"/>
      <stop offset=".624" stop-color="#436AFC"/>
      <stop offset=".704" stop-color="#5A60FD"/>
      <stop offset=".789" stop-color="#6B59FE"/>
      <stop offset=".882" stop-color="#7555FF"/>
      <stop offset="1" stop-color="#7854FF"/>
    </linearGradient>
  </defs>
</svg>
